<svg width="400" height="400" viewBox="0 0 400 400" fill="none" xmlns="http://www.w3.org/2000/svg">
<rect opacity="0.99" x="50" y="45" width="300" height="350" rx="17" fill="url(#paint0_radial_3_75)"/>
<rect x="116" y="327" width="22" height="18" fill="url(#paint1_radial_3_75)"/>
<rect x="240" y="327" width="44" height="18" fill="url(#paint2_radial_3_75)"/>
<rect x="156" y="327" width="66" height="18" fill="url(#paint3_radial_3_75)"/>
<rect x="234" y="291" width="50" height="18" fill="url(#paint4_radial_3_75)"/>
<rect x="116" y="291" width="100" height="18" fill="url(#paint5_radial_3_75)"/>
<path d="M284 179C284 225.392 246.392 263 200 263C153.608 263 116 225.392 116 179C116 132.608 153.608 95 200 95C246.392 95 284 132.608 284 179ZM134.001 179C134.001 215.45 163.55 244.999 200 244.999C236.45 244.999 265.999 215.45 265.999 179C265.999 142.55 236.45 113.001 200 113.001C163.55 113.001 134.001 142.55 134.001 179Z" fill="url(#paint6_radial_3_75)"/>
<rect x="185.537" y="184.223" width="18" height="18" rx="7" fill="url(#paint7_radial_3_75)"/>
<rect x="222.027" y="184.223" width="18" height="35" rx="7" transform="rotate(90 222.027 184.223)" fill="url(#paint8_radial_3_75)"/>
<rect x="185.537" y="147.287" width="18" height="50" rx="7" fill="url(#paint9_radial_3_75)"/>
<rect x="137" y="32.3334" width="125" height="38" rx="7" fill="url(#paint10_radial_3_75)"/>
<path d="M232 37.5C232 55.4493 217.449 70 199.5 70C181.551 70 167 55.4493 167 37.5C167 19.5507 181.551 5 199.5 5C217.449 5 232 19.5507 232 37.5ZM183.25 37.5C183.25 46.4746 190.525 53.75 199.5 53.75C208.475 53.75 215.75 46.4746 215.75 37.5C215.75 28.5254 208.475 21.25 199.5 21.25C190.525 21.25 183.25 28.5254 183.25 37.5Z" fill="url(#paint11_radial_3_75)"/>
<defs>
<radialGradient id="paint0_radial_3_75" cx="0" cy="0" r="1" gradientUnits="userSpaceOnUse" gradientTransform="translate(200 45) rotate(66.8014) scale(380.789 420.968)">
<stop stop-color="#A3C1D7"/>
<stop offset="0.25" stop-color="#7B9DBE"/>
<stop offset="0.5" stop-color="#506E8E"/>
<stop offset="0.75" stop-color="#4A6B8D"/>
<stop offset="1" stop-color="#263343"/>
</radialGradient>
<radialGradient id="paint1_radial_3_75" cx="0" cy="0" r="1" gradientUnits="userSpaceOnUse" gradientTransform="translate(200 45.0001) rotate(66.8014) scale(380.789 421.362)">
<stop stop-color="#FEF9EB"/>
<stop offset="0.25" stop-color="#FDD792"/>
<stop offset="0.5" stop-color="#F9C475"/>
<stop offset="0.75" stop-color="#D68E43"/>
<stop offset="1" stop-color="#B58736"/>
</radialGradient>
<radialGradient id="paint2_radial_3_75" cx="0" cy="0" r="1" gradientUnits="userSpaceOnUse" gradientTransform="translate(200 45) rotate(66.8014) scale(380.789 419.524)">
<stop stop-color="#FEF9EB"/>
<stop offset="0.25" stop-color="#FDD792"/>
<stop offset="0.5" stop-color="#F9C475"/>
<stop offset="0.75" stop-color="#D68E43"/>
<stop offset="1" stop-color="#B58736"/>
</radialGradient>
<radialGradient id="paint3_radial_3_75" cx="0" cy="0" r="1" gradientUnits="userSpaceOnUse" gradientTransform="translate(200 44.9999) rotate(66.8014) scale(380.789 421.231)">
<stop stop-color="#FEF9EB"/>
<stop offset="0.25" stop-color="#FDD792"/>
<stop offset="0.5" stop-color="#F9C475"/>
<stop offset="0.75" stop-color="#D68E43"/>
<stop offset="1" stop-color="#B58736"/>
</radialGradient>
<radialGradient id="paint4_radial_3_75" cx="0" cy="0" r="1" gradientUnits="userSpaceOnUse" gradientTransform="translate(200 45) rotate(66.8014) scale(380.789 420.968)">
<stop stop-color="#FEF9EB"/>
<stop offset="0.25" stop-color="#FDD792"/>
<stop offset="0.5" stop-color="#F9C475"/>
<stop offset="0.75" stop-color="#D68E43"/>
<stop offset="1" stop-color="#B58736"/>
</radialGradient>
<radialGradient id="paint5_radial_3_75" cx="0" cy="0" r="1" gradientUnits="userSpaceOnUse" gradientTransform="translate(200 44.9999) rotate(66.8014) scale(380.789 421.1)">
<stop stop-color="#FEF9EB"/>
<stop offset="0.25" stop-color="#FDD792"/>
<stop offset="0.5" stop-color="#F9C475"/>
<stop offset="0.75" stop-color="#D68E43"/>
<stop offset="1" stop-color="#B58736"/>
</radialGradient>
<radialGradient id="paint6_radial_3_75" cx="0" cy="0" r="1" gradientUnits="userSpaceOnUse" gradientTransform="translate(200 45) rotate(66.8014) scale(380.789 422.15)">
<stop stop-color="#FEF9EB"/>
<stop offset="0.25" stop-color="#FDD792"/>
<stop offset="0.5" stop-color="#F9C475"/>
<stop offset="0.75" stop-color="#D68E43"/>
<stop offset="1" stop-color="#B58736"/>
</radialGradient>
<radialGradient id="paint7_radial_3_75" cx="0" cy="0" r="1" gradientUnits="userSpaceOnUse" gradientTransform="translate(200 45) rotate(66.8014) scale(380.789 421.1)">
<stop stop-color="#FEF9EB"/>
<stop offset="0.25" stop-color="#FDD792"/>
<stop offset="0.5" stop-color="#F9C475"/>
<stop offset="0.75" stop-color="#D68E43"/>
<stop offset="1" stop-color="#B58736"/>
</radialGradient>
<radialGradient id="paint8_radial_3_75" cx="0" cy="0" r="1" gradientUnits="userSpaceOnUse" gradientTransform="translate(82.8049 206.25) rotate(-23.1986) scale(380.789 421.494)">
<stop stop-color="#FEF9EB"/>
<stop offset="0.25" stop-color="#FDD792"/>
<stop offset="0.5" stop-color="#F9C475"/>
<stop offset="0.75" stop-color="#D68E43"/>
<stop offset="1" stop-color="#B58736"/>
</radialGradient>
<radialGradient id="paint9_radial_3_75" cx="0" cy="0" r="1" gradientUnits="userSpaceOnUse" gradientTransform="translate(200 45) rotate(66.8014) scale(380.789 422.019)">
<stop stop-color="#FEF9EB"/>
<stop offset="0.25" stop-color="#FDD792"/>
<stop offset="0.5" stop-color="#F9C475"/>
<stop offset="0.75" stop-color="#D68E43"/>
<stop offset="1" stop-color="#B58736"/>
</radialGradient>
<radialGradient id="paint10_radial_3_75" cx="0" cy="0" r="1" gradientUnits="userSpaceOnUse" gradientTransform="translate(200 45) rotate(66.8014) scale(380.789 420.706)">
<stop stop-color="#FEF9EB"/>
<stop offset="0.25" stop-color="#FDD792"/>
<stop offset="0.5" stop-color="#F9C475"/>
<stop offset="0.75" stop-color="#D68E43"/>
<stop offset="1" stop-color="#B58736"/>
</radialGradient>
<radialGradient id="paint11_radial_3_75" cx="0" cy="0" r="1" gradientUnits="userSpaceOnUse" gradientTransform="translate(200 45) rotate(66.8014) scale(380.789 420.575)">
<stop stop-color="#FEF9EB"/>
<stop offset="0.25" stop-color="#FDD792"/>
<stop offset="0.5" stop-color="#F9C475"/>
<stop offset="0.75" stop-color="#D68E43"/>
<stop offset="1" stop-color="#B58736"/>
</radialGradient>
</defs>
</svg>
