<svg width="735" height="797" viewBox="0 0 735 797" fill="none" xmlns="http://www.w3.org/2000/svg">
<path d="M50 162H685L586.995 784.333C585.846 791.627 579.561 797 572.177 797H162.823C155.439 797 149.154 791.627 148.005 784.333L50 162Z" fill="url(#paint0_linear_2_40)"/>
<path d="M527.496 235.717C528.968 221.988 541.29 212.053 555.019 213.525C568.747 214.997 578.683 227.319 577.211 241.047L525.504 723.283C524.032 737.012 511.71 746.947 497.982 745.475C484.253 744.003 474.317 731.681 475.789 717.953L527.496 235.717Z" fill="url(#paint1_linear_2_40)"/>
<path d="M343 237C343 223.193 354.193 212 368 212C381.807 212 393 223.193 393 237V722C393 735.807 381.807 747 368 747C354.193 747 343 735.807 343 722V237Z" fill="url(#paint2_linear_2_40)"/>
<path d="M159.289 241.047C157.817 227.319 167.753 214.997 181.482 213.525C195.21 212.053 207.532 221.988 209.004 235.717L260.711 717.953C262.183 731.681 252.247 744.003 238.519 745.475C224.79 746.947 212.468 737.012 210.996 723.283L159.289 241.047Z" fill="url(#paint3_linear_2_40)"/>
<path d="M0 112C0 84.3858 22.3858 62 50 62H685C712.614 62 735 84.3858 735 112C735 139.614 712.614 162 685 162H50C22.3858 162 0 139.614 0 112Z" fill="url(#paint4_linear_2_40)"/>
<path d="M273 0C256.431 0 243 13.4315 243 30V62H273V45C273 36.7157 279.716 30 288 30H448C456.284 30 463 36.7157 463 45V62H493V30C493 13.4315 479.569 0 463 0H273Z" fill="url(#paint5_linear_2_40)"/>
<path d="M527.496 235.717C528.968 221.988 541.29 212.053 555.019 213.525C568.747 214.997 578.683 227.319 577.211 241.047L525.505 723.283C524.033 737.012 511.71 746.947 497.982 745.475C484.253 744.003 474.317 731.681 475.789 717.953L527.496 235.717Z" fill="white" fill-opacity="0.37"/>
<path d="M343 237C343 223.193 354.193 212 368 212C381.807 212 393 223.193 393 237V722C393 735.807 381.807 747 368 747C354.193 747 343 735.807 343 722V237Z" fill="white" fill-opacity="0.37"/>
<path d="M159.289 241.047C157.817 227.319 167.753 214.997 181.482 213.525C195.21 212.053 207.532 221.988 209.004 235.717L260.711 717.953C262.183 731.681 252.247 744.003 238.519 745.475C224.79 746.947 212.468 737.012 210.996 723.283L159.289 241.047Z" fill="white" fill-opacity="0.37"/>
<defs>
<linearGradient id="paint0_linear_2_40" x1="0" y1="0" x2="735" y2="797" gradientUnits="userSpaceOnUse">
<stop stop-color="#FEF9EB"/>
<stop offset="0.25" stop-color="#FDD792"/>
<stop offset="0.75" stop-color="#F9C475"/>
<stop offset="1" stop-color="#D68E43"/>
</linearGradient>
<linearGradient id="paint1_linear_2_40" x1="0" y1="0" x2="735" y2="797" gradientUnits="userSpaceOnUse">
<stop stop-color="#FEF9EB"/>
<stop offset="0.25" stop-color="#FDD792"/>
<stop offset="0.75" stop-color="#F9C475"/>
<stop offset="1" stop-color="#D68E43"/>
</linearGradient>
<linearGradient id="paint2_linear_2_40" x1="0" y1="0" x2="735" y2="797" gradientUnits="userSpaceOnUse">
<stop stop-color="#FEF9EB"/>
<stop offset="0.25" stop-color="#FDD792"/>
<stop offset="0.75" stop-color="#F9C475"/>
<stop offset="1" stop-color="#D68E43"/>
</linearGradient>
<linearGradient id="paint3_linear_2_40" x1="0" y1="0" x2="735" y2="797" gradientUnits="userSpaceOnUse">
<stop stop-color="#FEF9EB"/>
<stop offset="0.25" stop-color="#FDD792"/>
<stop offset="0.75" stop-color="#F9C475"/>
<stop offset="1" stop-color="#D68E43"/>
</linearGradient>
<linearGradient id="paint4_linear_2_40" x1="0" y1="0" x2="735" y2="797" gradientUnits="userSpaceOnUse">
<stop stop-color="#FEF9EB"/>
<stop offset="0.25" stop-color="#FDD792"/>
<stop offset="0.75" stop-color="#F9C475"/>
<stop offset="1" stop-color="#D68E43"/>
</linearGradient>
<linearGradient id="paint5_linear_2_40" x1="0" y1="0" x2="735" y2="797" gradientUnits="userSpaceOnUse">
<stop stop-color="#FEF9EB"/>
<stop offset="0.25" stop-color="#FDD792"/>
<stop offset="0.75" stop-color="#F9C475"/>
<stop offset="1" stop-color="#D68E43"/>
</linearGradient>
</defs>
</svg>
